<?xml version="1.0" encoding="utf-8"?>
<!-- Generator: Adobe Illustrator 16.0.0, SVG Export Plug-In . SVG Version: 6.00 Build 0)  -->
<!DOCTYPE svg PUBLIC "-//W3C//DTD SVG 1.1//EN" "http://www.w3.org/Graphics/SVG/1.1/DTD/svg11.dtd">
<svg version="1.1" id="レイヤー_1" xmlns="http://www.w3.org/2000/svg" xmlns:xlink="http://www.w3.org/1999/xlink" x="0px"
	 y="0px" width="293.861px" height="108.797px" viewBox="0 0 293.861 108.797" enable-background="new 0 0 293.861 108.797"
	 xml:space="preserve">
<g>
	<path fill="#FFFFFF" d="M203.781,83.379c-1.371,6.146-2.734,12.291-4.108,18.437c-0.68,3.022-0.686,3.022-3.823,3.117
		c-0.574,0.014-1.151,0-1.915,0l7.369-32.199l-44.042,3.846c0.368,1.197,0.608,2.393-0.475,3.232
		c-0.471,0.362-1.054,0.725-1.62,0.795c-1.691,0.209-2.439-0.709-3.016-3.58c-2.177,0.188-4.37,0.375-6.563,0.563
		c-4.951,0.433-9.901,0.86-14.854,1.302c-5.883,0.518-11.766,1.055-17.646,1.567c-5.688,0.496-11.382,0.976-17.068,1.469
		c-5.846,0.509-11.69,1.024-17.536,1.539c-4.797,0.42-9.595,0.836-14.393,1.259c-6.773,0.6-13.539,1.325-20.324,1.737
		c-2.647,0.158-4.799,1.313-7.132,2.224c-2.152,0.836-4.399,1.471-6.652,1.991c-2.106,0.488-4.264,0.813-6.417,1.025
		c-3.198,0.319-6.338-0.058-9.319-1.341C8.2,87.758,4.289,83.191,1.955,77.113c-1.657-4.323-2.167-8.764-1.881-13.356
		C0.709,53.597,3.926,44.273,9.17,35.631c3.55-5.842,8.025-10.866,14.068-14.266c3.021-1.699,6.242-2.822,9.764-3.104
		c4.176-0.331,7.94,0.555,11.203,3.215c1.987,1.62,3.458,3.652,4.343,6.081c2.354,6.491,0.942,12.508-2.386,18.245
		c-2.114,3.652-4.938,6.684-8.532,8.916c-3.256,2.021-6.804,2.934-10.647,2.357c-2.038-0.303-3.067-1.311-3.212-3.33
		c-0.093-1.299-0.104-2.637,0.111-3.912c0.154-0.935,0.938-1.625,2.002-1.291c2.897,0.904,5.589,0.36,8.177-1.033
		c2.424-1.303,4.297-3.201,5.618-5.592c1.854-3.359,2.4-6.852,1.234-10.643c-0.725-2.355-3.523-4.641-6.521-4.784
		c-3.778-0.18-6.83,1.404-9.611,3.73c-3.531,2.952-5.895,6.78-7.939,10.812c-1.975,3.881-3.542,7.946-4.468,12.204
		c-0.719,3.313-1.244,6.684-1.636,10.053c-0.229,1.979-0.18,4.023,0.025,6.01c0.417,4.025,1.679,7.699,4.951,10.426
		c2.082,1.73,4.554,2.391,7.119,2.447c7.341,0.174,13.518-2.885,19.122-7.305c3.143-2.473,6.213-5.027,9.278-7.594
		c0.313-0.261,0.524-0.83,0.516-1.252c-0.104-5.576-0.449-11.154-0.342-16.726c0.099-4.85,0.622-9.694,1.094-14.53
		c0.472-4.837,1.572-9.544,3.469-14.039c1.521-3.611,3.607-6.847,7.076-8.835c2.512-1.441,5.35-1.992,8.172-0.997
		c2.188,0.771,3.083,2.723,3.463,4.889c0.999,5.687-0.063,11.198-1.766,16.566c-1.893,5.979-4.055,11.875-6.198,17.771
		c-0.849,2.326-1.968,4.551-2.955,6.824c-0.205,0.473-0.608,1.018,0.183,1.176c2.038-2.789,3.902-5.617,6.061-8.199
		c1.525-1.828,3.355-3.441,5.237-4.912c0.814-0.637,2.089-0.879,3.173-0.93c1.488-0.07,2.693,1.498,2.905,3.271
		c0.324,2.706-0.146,5.323-0.737,7.94c-0.637,2.826-1.409,5.641-1.798,8.504c-0.23,1.723,0,3.563,0.317,5.297
		c0.283,1.541,1.215,1.859,2.592,1.16c0.961-0.49,1.848-1.129,2.818-1.598c1.326-0.644,1.507-1.781,1.604-3.062
		c0.539-6.948,3.281-12.967,7.991-18.043c2.215-2.389,4.942-4.135,8.184-4.858c1.49-0.332,2.938-0.288,3.936,1.238
		c0.256,0.392,0.836,0.719,1.309,0.79c0.824,0.125,1.694,0.115,2.523,0.004c2.182-0.292,3.206,0.242,3.376,2.398
		c0.185,2.34,0.023,4.715-0.077,7.069c-0.161,3.711-0.435,7.418-0.578,11.127c-0.028,0.746,0.254,1.529,0.511,2.254
		c0.306,0.855,1.347,1.125,2.407,0.605c1.97-0.965,3.413-2.574,4.711-4.264c0.396-0.512,0.229-1.479,0.252-2.235
		c0.167-5.729,0.645-11.421,1.758-17.05c0.03-0.152,0.052-0.309,0.08-0.459c0.639-3.103,1.906-4.028,5.051-3.686
		c0.946,0.104,1.43,0.8,1.521,2.146c0.088,1.316,0.188,2.633,0.313,3.945c0.119,1.297,0.278,2.592,0.7,3.955
		c0.524-1.293,1.021-2.603,1.579-3.881c1.104-2.517,2.423-4.916,4.831-6.411c2.016-1.25,4.688-1.374,6.083,0.605
		c0.93,1.314,0.52,2.834,0.467,4.291c-0.078,2.271-0.385,4.568-0.137,6.805c0.402,3.631,3.269,3.824,5.558,2.471
		c-0.078-2.87-0.269-5.7-0.208-8.524c0.104-5.069,0.824-10.074,1.793-15.053c0.983-5.072,2.357-10.028,4.308-14.803
		c1.767-4.326,3.881-8.49,7.401-11.717c1.636-1.499,3.566-2.471,5.845-2.561c2.253-0.088,4.271,1.897,4.925,4.619
		c1.272,5.316,0.617,10.559-0.624,15.748c-1.833,7.652-5.079,14.79-8.188,21.975c-1.556,3.588-3.083,7.197-4.347,10.891
		c-0.865,2.539-0.771,5.17,0.741,7.603c0.506,0.815,1.028,1.312,1.95,0.795c1.743-0.981,3.475-1.991,5.154-3.078
		c0.249-0.159,0.334-0.821,0.259-1.202c-1.234-6.152-0.653-11.995,3.175-17.171c2.558-3.458,6.108-5.4,10.347-6.133
		c6.645-1.147,12.372,0.973,17.634,4.834c0.25,0.185,0.506,0.363,0.765,0.535c0.063,0.041,0.146,0.047,0.332,0.103V35.27
		c-2.436-0.146-4.896-0.288-7.354-0.445c-0.456-0.028-0.94-0.038-1.354-0.208c-1.104-0.455-1.521-1.357-1.464-2.527
		c0.053-1.097,0.852-1.486,1.702-1.61c2.601-0.377,5.208-0.728,7.823-0.929c1.063-0.082,1.353-0.444,1.473-1.442
		c0.813-6.8,2.24-13.45,5.383-19.608c0.99-1.944,2.271-3.697,4.078-5.021c1.854-1.356,4.99-1.245,6.703,0.283
		c2.519,2.249,3.562,5.183,3.896,8.424c0.498,4.819-1.25,9.131-3.143,13.396c-0.519,1.168-1.095,2.307-1.755,3.692
		c0.571-0.122,1.05-0.086,1.322-0.306c1.771-1.396,3.896-1.385,5.965-1.584c1.313-0.125,2.63-0.227,3.943-0.324
		c0.64-0.047,0.866-0.314,0.958-1.007c0.854-6.427,2.102-12.761,4.839-18.7c1.02-2.204,2.235-4.329,4.142-5.85
		c2.723-2.174,5.811-2.104,8.325,0.922c2.575,3.098,3.322,6.875,2.825,10.839c-0.534,4.249-2.15,8.149-4.104,11.924
		c-0.229,0.44-0.397,0.913-0.688,1.591c2.698-0.126,5.233-0.246,7.771-0.363c1.045-0.048,2.09-0.108,3.135-0.115
		c0.239-0.002,0.579,0.125,0.705,0.311c0.792,1.156,1.047,2.406,0.47,3.741c-0.476,1.101-1.365,1.426-2.512,1.519
		c-4.217,0.332-8.426,0.729-12.632,1.146c-0.354,0.035-0.782,0.326-0.985,0.627c-1.035,1.548-2.012,3.136-2.997,4.717
		c-0.141,0.225-0.317,0.497-0.304,0.737c0.25,4.338,0.458,8.681,0.848,13.005c0.104,1.146,0.604,2.369,1.253,3.33
		c1.271,1.881,3.89,2.358,6.081,1.385c3.367-1.496,6.317-3.615,9.044-6.062c0.234-0.209,0.384-0.674,0.354-0.998
		c-0.603-5.844,0.509-11.295,3.926-16.125c2.223-3.142,5.227-5.082,9.218-5.34c3.688-0.24,6.729,0.813,8.854,3.961
		c1.368,2.028,1.744,4.313,1.324,6.666c-0.638,3.58-2.656,6.364-5.276,8.816c-2.278,2.133-4.95,3.555-7.747,4.824
		c0.542,1.693,2.451,3.16,4.24,2.844c1.884-0.33,3.801-0.834,5.521-1.645c3.646-1.715,6.721-4.279,9.59-7.084
		c0.493-0.48,0.938-1.012,1.485-1.61l5.141,4.539c-3.051,3.883-6.597,7.081-10.665,9.726l0.132,0.332l13.799-1.188l0.55,6.158
		c-16.616,1.459-33.086,2.904-49.538,4.352c-0.094,3.244-0.613,3.98-2.776,4.082c-1.307,0.062-2.231-1.215-2.532-3.635
		l-11.617,1.074l5.103,31.189l-4.789,0.479l-3.312-20.7l-0.221-0.063l-10.729,24.426l-9.075-22.576L203.781,83.379L203.781,83.379z
		 M227.258,33.907c-0.528,0.143-0.783,0.25-1.046,0.273c-4.401,0.396-8.808,0.771-13.204,1.19c-0.405,0.039-0.938,0.247-1.15,0.554
		c-1.001,1.429-1.899,2.929-2.857,4.387c-0.809,1.229-0.443,2.542-0.354,3.847c0.266,3.7,0.386,7.417,0.813,11.097
		c0.201,1.73,1.053,3.361,2.897,4.064c1.741,0.664,3.435,0.375,5.056-0.435c3.819-1.903,7.122-4.517,10.171-7.471
		c0.579-0.56,1.004-1.133,0.763-2.031c-0.223-0.819-0.38-1.666-0.445-2.51c-0.242-3.127-0.452-6.256-0.631-9.387
		C227.203,36.342,227.258,35.192,227.258,33.907L227.258,33.907z M135.116,51.715l-0.396,0.002l-5.574,21.084l25.286-2.204
		c-1.169-2.21-2.396-4.337-3.438-6.55c-0.931-1.979-0.8-1.91-2.894-1.131c-3.319,1.237-7.515,0.901-9.646-2.494
		c-0.99-1.582-1.66-3.383-2.35-5.138C135.657,54.144,135.44,52.912,135.116,51.715L135.116,51.715z M213.176,94.306
		c0.099-0.021,0.195-0.044,0.297-0.064l10.205-23.479l-19.415,1.703C207.288,79.879,210.233,87.092,213.176,94.306L213.176,94.306z
		 M191.014,42.301l-0.215,0.236c4.574,8.887,3.722,17.202-2.72,25.11l18.646-1.627c-1.113-1.893-2.41-3.578-3.151-5.479
		c-1.088-2.789-2.146-5.688-2.534-8.627c-0.394-3.002-1.575-4.947-4.272-6.24C194.77,44.717,192.926,43.438,191.014,42.301
		L191.014,42.301z M175.26,56.025c0.063,2.063,0.479,4.008,1.628,5.74c1.671,2.528,4.749,2.7,6.609,0.409
		c1.396-1.713,1.973-3.748,2.428-5.84c0.796-3.664,0.877-7.322-0.656-10.8c-1.385-3.139-4.251-3.829-6.49-1.147
		C175.959,47.767,175.383,51.833,175.26,56.025z M58.76,54.501l0.271,0.063c0.15-0.373,0.323-0.74,0.448-1.123
		c1.054-3.239,2.052-6.497,3.159-9.716c2.178-6.338,4.233-12.702,5.168-19.37c0.272-1.963,0.51-3.929-0.073-5.875
		c-0.286-0.958-0.657-1.046-1.353-0.347c-0.219,0.218-0.412,0.477-0.544,0.75c-0.916,1.879-1.858,3.748-2.704,5.658
		c-2.109,4.76-3.033,9.803-3.438,14.961c-0.157,2-0.361,3.998-0.479,5.998C59.035,48.5,58.908,51.501,58.76,54.501z M105.113,49.156
		c-1.23,0.636-2.228,1.041-3.104,1.621c-2.355,1.559-3.764,3.899-4.823,6.414c-1.538,3.643-2.601,7.396-1.466,11.395
		c0.313,1.109,0.87,2.063,2.145,2.352c1.292,0.293,2.146-0.346,2.898-1.264c1.921-2.354,2.514-5.213,2.979-8.084
		c0.371-2.281,0.527-4.602,0.777-6.902C104.702,52.969,104.887,51.254,105.113,49.156L105.113,49.156z M72.65,55.855l-0.472-0.299
		c-5.6,6.895-9.672,14.639-12.581,23.334l13.319-1.168c-0.312-0.466-0.5-0.755-0.695-1.039c-1.702-2.453-2.754-5.168-2.556-8.15
		c0.162-2.414,0.641-4.826,1.188-7.189C71.286,59.474,72.039,57.681,72.65,55.855L72.65,55.855z M156.909,42.858l0.333,0.084
		c0.188-0.373,0.406-0.73,0.549-1.119c2.083-5.705,4.35-11.354,6.155-17.145c0.994-3.178,1.281-6.588,1.746-9.916
		c0.15-1.082-0.153-2.229-0.248-3.344l-0.538-0.188c-0.766,0.826-1.691,1.553-2.27,2.495c-2.95,4.821-4.04,10.261-4.943,15.731
		c-0.392,2.363-0.615,4.764-0.757,7.156C156.813,38.688,156.909,40.776,156.909,42.858L156.909,42.858z M207.433,29.063
		c1.019-0.156,2.062,0.497,2.575-0.87c1.429-3.803,2.964-7.568,4.313-11.398c0.508-1.438,0.858-3.037,0.197-4.545
		c-0.246-0.56-0.803-1.226-1.33-1.345c-0.469-0.106-1.236,0.353-1.616,0.786c-0.491,0.563-0.869,1.313-1.054,2.042
		c-0.813,3.219-1.589,6.449-2.271,9.698C207.872,25.233,207.713,27.082,207.433,29.063L207.433,29.063z M242.573,11.237
		l-0.271-0.089c-0.029-0.229-0.033-0.465-0.097-0.687c-0.261-0.968-0.632-1.955-1.749-2.092c-1.063-0.13-1.519,0.801-1.895,1.604
		c-0.426,0.906-0.875,1.836-1.077,2.807c-0.884,4.23-1.694,8.475-2.479,12.725c-0.062,0.315,0.251,0.965,0.48,1.015
		c0.589,0.124,1.359,0.644,1.779-0.368c1.054-2.536,2.253-5.02,3.178-7.604C241.302,16.164,241.876,13.678,242.573,11.237z
		 M262.03,46.452c0.285,0,0.397,0.012,0.506-0.004c0.155-0.02,0.31-0.053,0.456-0.097c2.903-0.851,4.98-2.787,6.592-5.226
		c1.097-1.654,0.884-3.429-0.238-5.002c-0.323-0.455-1.077-0.897-1.603-0.861c-1.894,0.132-3.4,1.123-4.335,2.761
		C261.934,40.609,261.935,43.476,262.03,46.452L262.03,46.452z M234.24,63.605l-3.672-5.822c-0.168,0.277-0.313,0.793-0.654,1.037
		c-1.982,1.414-4.019,2.764-6.03,4.139c-0.787,0.539-1.563,1.092-2.575,1.799L234.24,63.605L234.24,63.605z M249.246,62.008
		l0.095,0.274l10.019-0.86l-4.059-3.543L249.246,62.008L249.246,62.008z M103.894,75.044l4.799-0.484l-1.625-2.68L103.894,75.044
		L103.894,75.044z M49.974,79.447l0.117,0.297l3.192-0.348l-0.492-2.248L49.974,79.447L49.974,79.447z M172.585,68.986l-1.489-1.657
		l-3.057,2.097L172.585,68.986z M88.137,74.812l-1.9,1.707l3.25-0.246L88.137,74.812z"/>
	<path fill="#FFFFFF" d="M156.2,108.396l-4.889,0.401l0.727-20.688l4.878-0.469L156.2,108.396z M161.571,104.357l2.613-2.15
		c1.668,0.631,2.969,1.279,4.346,1.602c1.19,0.277,2.484-0.693,2.798-1.771c0.281-0.968-0.26-1.878-1.516-2.548
		c-1.604-0.854-3.203-1.709-4.813-2.555c-3.014-1.59-3.229-7.199,0.271-9.654c3.255-2.284,7.877-1.873,10.891,0.945l-2.313,2.896
		c-0.998-0.402-1.924-0.765-2.84-1.152c-1.046-0.438-1.926-0.021-2.701,0.593c-0.941,0.739-1.007,2.112-0.02,2.803
		c1.264,0.879,2.646,1.6,4.032,2.268c3.646,1.768,4.675,4.561,3.521,8.254c-0.502,1.604-1.787,2.602-3.216,3.195
		C168.773,108.685,164.563,108.099,161.571,104.357z M237.824,101.254l0.745-20.765l4.906-0.396
		c-0.145,3.113-0.299,6.072-0.405,9.035c-0.119,3.279-0.188,6.563-0.283,9.848c-0.054,1.92-0.054,1.904-2,2.004
		C239.869,101.029,238.953,101.148,237.824,101.254z M267.131,98.676l-4.618,0.423c0-2.298-0.018-4.488,0.005-6.679
		c0.021-2.597,0.138-5.188,0.09-7.78c-0.039-1.939-2.292-3.037-4.345-2.146c-1.898,0.822-3.249,2.195-3.408,4.348
		c-0.271,3.701-0.428,7.412-0.638,11.119c-0.031,0.574-0.094,1.146-0.146,1.83l-4.812,0.48l0.725-20.767l4.889-0.396l-0.086,1.479
		c0.966-0.601,1.866-1.142,2.751-1.709c1.707-1.095,5.905-1.196,7.729,0.401c1.604,1.412,2.245,3.175,2.229,5.148
		c-0.028,3.871-0.236,7.74-0.358,11.611C267.109,96.883,267.131,97.726,267.131,98.676L267.131,98.676z M293.862,87.691
		l-15.748,1.406c-0.146,2.116,1.851,4.34,4.061,4.584c2.448,0.268,4.647-0.234,6.233-2.304c0.379-0.494,0.706-0.58,1.271-0.287
		c0.923,0.479,1.896,0.854,2.98,1.336c-0.762,1.604-1.837,2.86-3.177,3.724c-3.558,2.293-9.246,2.582-12.954-0.269
		c-1.854-1.426-2.963-3.416-3.417-5.771c-0.434-2.248-0.393-4.438,0.231-6.649c1.181-4.185,5.156-7.313,9.491-7.522
		c2.268-0.113,4.38,0.131,6.322,1.416c2.168,1.434,3.378,3.508,4.022,5.922C293.548,84.644,293.626,86.088,293.862,87.691z
		 M288.371,84.219c-0.373-2.663-2.354-4.338-5.259-4.196c-2.677,0.131-4.62,1.651-5.153,5.117L288.371,84.219L288.371,84.219z"/>
</g>
</svg>
