<?xml version="1.0" encoding="utf-8"?>
<!-- Generator: Adobe Illustrator 16.0.0, SVG Export Plug-In . SVG Version: 6.00 Build 0)  -->
<!DOCTYPE svg PUBLIC "-//W3C//DTD SVG 1.1//EN" "http://www.w3.org/Graphics/SVG/1.1/DTD/svg11.dtd">
<svg version="1.1" id="レイヤー_1" xmlns="http://www.w3.org/2000/svg" xmlns:xlink="http://www.w3.org/1999/xlink" x="0px"
	 y="0px" width="500px" height="237.995px" viewBox="0 130.892 500 237.995" enable-background="new 0 130.892 500 237.995"
	 xml:space="preserve">
<path fill="#FFFFFF" d="M151.898,317.458v10.702c-7.707,0.457-15.769,0.67-23.752,0.504c0.757-0.678,1.466-1.395,2.12-2.145
	c2.207-2.576,3.799-5.492,4.76-8.621C140.668,317.962,146.374,317.797,151.898,317.458z M62.895,318.75
	c4.823,1.498,12.451,3.682,22.799,5.627V311.91c-6.272-1.379-11.276-2.768-14.351-3.861c-0.134-0.048-0.269-0.104-0.402-0.158
	c-0.471,1.059-1.223,1.965-2.175,2.625c-1.063,0.726-2.309,1.104-3.562,1.104c-0.772,0-1.537-0.143-2.278-0.426l-0.717-0.275
	c-0.173-0.063-0.339-0.143-0.496-0.221c-5.217-2.555-10.229-4.026-14.627-4.311C51.145,312.391,55.345,316.41,62.895,318.75z
	 M492.072,200.447c-1.545-2.23-4.453-3.783-9.653-4.571c-16.825-2.561-33.792-5.469-50.774-6.643
	c-11.355-0.78-22.925-1.277-34.313-1.024c-44.161,0.969-91.596,10.063-100.365,13.302c-8.756,3.255-29.876,10.402-36.038,11.703
	c-6.171,1.3-11.033,0.969-11.033,0.969s-4.886,0.331-11.032-0.969c-6.179-1.292-27.282-8.44-36.054-11.703
	c-8.787-3.239-56.188-12.333-100.358-13.302c-28.37-0.63-58.854,1.544-86.514,8.243c-10.521,2.545-10.009,7.258-9.252,16.856
	c0.441,5.595,0.78,11.19,1.284,16.786c0,0,1.293,3.254,1.624,4.216c0.322,0.985,4.586,6.179,8.487,9.417
	c3.885,3.255,8.438,22.074,10.717,27.283c1.136,2.602,3.665,8.055,6.549,13.957c3.129-0.693,6.392-1.057,9.804-1.057
	c1.253,0,2.53,0.07,3.814,0.174c-0.347-0.678-0.678-1.355-0.993-2.025c-11.049-23.705-10.41-49.68-10.41-49.68
	c0.331-2.932,0-15.729,4.231-21.246c4.225-5.524,4.548-6.549,12.342-8.826c7.785-2.27,40.175-4.027,64.856-2.727
	c24.675,1.3,66.574,8.763,74.691,11.687c8.125,2.923,14.296,6.17,19.828,13.318c5.508,7.148,8.755,10.726,7.77,20.143
	c-0.961,9.417-9.717,42.532-13.311,49.679c-3.002,6.005-7.392,12.223-16.399,16.179h2.065c3.482,0,6.32,2.821,6.32,6.305v3.955
	c9.669-4.712,16.171-17.494,19.717-25.461c3.893-8.764,7.471-19.158,10.702-28.252c3.246-9.095,8.464-24.998,11.031-27.267
	c2.616-2.278,8.465-1.3,8.465-1.3s5.84-0.97,8.425,1.3c2.607,2.277,7.81,18.18,11.056,27.267
	c3.239,9.094,6.802,19.488,10.702,28.252c3.901,8.771,11.364,23.389,22.751,26.637c1.198,0.347,2.664,0.701,4.317,1.063v-12.963
	c-1.244-0.592-2.402-1.229-3.467-1.898h-5.201c-3.482,0-6.305-2.822-6.305-6.305v-6.73c-0.134-0.26-0.274-0.521-0.4-0.779
	c-3.563-7.147-12.343-40.264-13.304-49.679c-0.984-9.417,2.263-12.995,7.794-20.143c5.51-7.14,11.688-10.395,19.819-13.318
	c8.102-2.924,50.01-10.395,74.685-11.687c24.689-1.3,57.079,0.457,64.865,2.727c7.793,2.277,8.124,3.302,12.341,8.826
	c4.225,5.517,3.894,18.314,4.225,21.246c0,0,0.653,25.976-10.388,49.681c-5.209,11.188-15.271,23.059-23.404,25.981
	c-4.257,1.528-12.246,3.603-22.16,5.453c0.645,1.01,0.985,2.183,0.984,3.381v8.685c13.878-2.184,23.8-4.988,29.64-6.802
	c9.409-2.924,13.633-8.432,18.843-17.211c5.185-8.771,12.986-25.336,15.248-30.528c2.278-5.209,6.825-24.028,10.718-27.284
	c3.901-3.239,8.164-8.432,8.479-9.417c0.331-0.969,1.632-4.216,1.632-4.224c0.378-4.279,0.731-8.559,1.063-12.837
	C493.434,209.927,494.679,204.214,492.072,200.447L492.072,200.447z M358.362,317.875c-10.332-0.182-20.529-1.063-29.158-2.293
	v10.962c8.812,1.009,18.843,1.789,29.158,2.073V317.875z M471.58,348.886l-0.386-0.118l-0.109,0.395
	c-0.466,1.758-1.355,3.145-2.633,4.13c-1.276,0.983-2.759,1.489-4.404,1.489c-2.404,0-4.232-0.772-5.58-2.372
	c-1.349-1.593-2.033-3.839-2.033-6.683c0-2.854,0.701-5.17,2.089-6.896c1.379-1.727,3.146-2.563,5.397-2.563
	c3.421,0,5.649,1.467,6.81,4.484l0.118,0.323l0.339-0.079l3.664-0.891l0.402-0.096l-0.11-0.394c-0.701-2.419-2.01-4.296-3.894-5.587
	c-1.875-1.285-4.217-1.932-6.942-1.932c-3.854,0-6.982,1.205-9.315,3.577c-2.332,2.372-3.515,5.556-3.515,9.466
	c0,4.35,1.135,7.816,3.381,10.314c2.254,2.506,5.367,3.781,9.269,3.781c2.806,0,5.279-0.771,7.359-2.309
	c2.089-1.537,3.491-3.712,4.169-6.453l0.087-0.371L475.381,350L471.58,348.886L471.58,348.886z M487.626,345.473
	c0,6.463-2.332,12.074-6.936,16.685c-4.603,4.61-10.197,6.95-16.644,6.95c-6.479,0-12.104-2.332-16.716-6.936
	c-4.609-4.602-6.95-10.221-6.95-16.699c0-6.461,2.341-12.063,6.95-16.666c4.61-4.604,10.236-6.936,16.716-6.936
	c6.438,0,12.041,2.332,16.644,6.936C485.294,333.409,487.626,339.02,487.626,345.473L487.626,345.473z M477.406,358.895
	c3.704-3.729,5.579-8.235,5.579-13.422c0-5.185-1.875-9.685-5.579-13.389c-3.704-3.703-8.195-5.579-13.356-5.579
	c-5.201,0-9.726,1.876-13.438,5.579c-3.712,3.704-5.596,8.204-5.596,13.389c0,5.201,1.884,9.726,5.596,13.438
	c3.712,3.711,8.235,5.595,13.438,5.595C469.209,364.505,473.709,362.621,477.406,358.895z M45.148,290.223
	c-9.764,0-18.228,3.365-25.153,10.008c-6.937,6.645-10.45,14.746-10.45,24.076c0,9.496,3.578,17.723,10.631,24.453
	c7.046,6.723,15.651,10.126,25.58,10.126c6.77,0,13.295-1.56,19.095-4.649l0.363-0.229v-10.93l-0.749,0.512
	c-6.249,3.516-12.317,5.305-17.889,5.305c-7.668,0-14.171-2.365-19.262-7.015c-5.075-4.649-7.667-10.521-7.667-17.472
	c0-6.816,2.506-12.648,7.472-17.329c4.973-4.688,11.166-7.062,18.433-7.062c5.682,0,12.151,1.688,18.937,5.012l0.719,0.275v-10.67
	l-0.396-0.173C58.127,291.641,51.405,290.223,45.148,290.223z M130.936,356.285l0.418,0.779h-10.726l-0.331-0.465l-17.559-26.328
	h-1.276v26.793h-9.448v-64.619h14.09c6.929,0,12.656,1.639,17.022,5.098c4.396,3.484,6.628,7.889,6.628,13.326
	c0,4.343-1.442,8.236-4.287,11.561c-2.751,3.217-7.03,5.533-12.729,6.896L130.936,356.285L130.936,356.285z M102.306,322.146
	c11.845,0,17.565-3.522,17.565-10.772c0-2.585-0.718-4.735-2.145-6.368c-1.441-1.646-3.373-2.781-5.784-3.381
	c-2.396-0.59-5.753-0.898-10.48-0.914v21.428C101.462,322.146,102.014,322.146,102.306,322.146z M117.208,318.646
	c0.142-0.125,0.291-0.244,0.417-0.377C117.491,318.396,117.35,318.521,117.208,318.646z M119.824,314.502
	c0.047-0.156,0.103-0.307,0.142-0.473C119.927,314.195,119.864,314.337,119.824,314.502z M119.383,315.691
	c0.07-0.156,0.149-0.308,0.213-0.465C119.532,315.385,119.453,315.535,119.383,315.691z M118.808,316.771
	c0.095-0.148,0.197-0.291,0.275-0.44C118.996,316.48,118.903,316.623,118.808,316.771z M118.082,317.758
	c0.118-0.135,0.245-0.27,0.347-0.41C118.319,317.489,118.193,317.623,118.082,317.758z M120.179,312.745
	c-0.016,0.149-0.048,0.276-0.071,0.426C120.131,313.029,120.163,312.895,120.179,312.745z M102.786,322.533
	c0.369,0,0.725-0.016,1.088-0.023L102.786,322.533z M116.184,319.443c0.165-0.118,0.33-0.229,0.488-0.348
	C116.523,319.223,116.349,319.334,116.184,319.443z M115.025,320.152c0.189-0.103,0.379-0.196,0.561-0.307
	C115.404,319.948,115.214,320.051,115.025,320.152z M113.717,320.76c0.213-0.087,0.425-0.174,0.63-0.268
	C114.143,320.586,113.93,320.673,113.717,320.76z M112.251,321.287c0.244-0.07,0.479-0.148,0.709-0.229
	C112.732,321.139,112.495,321.209,112.251,321.287z M110.652,321.713c0.269-0.063,0.527-0.126,0.78-0.189
	C111.179,321.596,110.919,321.658,110.652,321.713z M108.902,322.061c0.292-0.047,0.575-0.096,0.859-0.149
	C109.485,321.957,109.194,322.005,108.902,322.061z M104.969,322.462c0.347-0.017,0.678-0.04,1.009-0.063
	C105.647,322.422,105.316,322.445,104.969,322.462z M158.328,292.445h-0.126v64.619h35.455v-9.455h-26.007v-21.278h26.007v-9.464
	h-26.007v-14.975h26.007v-9.455h-35.329V292.445z M253.857,368.887l-5.099-11.033h-20.166l21.955-48.74l24.683,54.258h12.758
	l-37.163-82.141l-0.475-1.127l-0.465,0.994l-38.906,86.687l-0.323,1.11h0.545L253.857,368.887L253.857,368.887z M298.752,292.445
	h-0.283v9.455h14.973v55.164h9.465V301.9h14.975v-9.455H298.752L298.752,292.445z M400.585,292.445h-35.911v64.619h36.25v-9.455
	H374.13v-21.278h26.794v-9.464H374.13v-14.975h26.794v-9.455h-0.339V292.445L400.585,292.445z M267.735,176.6v-16.502
	c0-2.285,0.788-4.2,2.081-5.752c1.292-1.553,3.025-2.333,4.887-2.333c3.129,0,4.847,1.907,4.847,5.722V176.6h6.305v-15.935
	c0-2.427,0.465-4.46,1.727-6.107c1.261-1.647,2.758-2.466,4.569-2.466c3.185,0,4.736,1.607,4.736,4.838v19.67h6.305v-21.27
	c0-2.38-0.962-4.429-2.633-6.163c-1.678-1.726-3.727-2.593-6.044-2.593c-1.892,0-3.577,0.481-5.004,1.45
	c-1.427,0.969-2.924,2.506-4.461,4.626c-0.874-2.12-1.946-3.657-3.199-4.626c-1.261-0.961-2.994-1.45-5.209-1.45
	c-1.694,0-3.333,0.426-4.649,1.269c-1.309,0.852-2.68,2.191-4.256,4.027v-4.429h-5.517V176.6H267.735L267.735,176.6z
	 M335.508,153.321c-1.576-2.001-2.838-3.625-4.888-4.87c-2.049-1.245-4.278-1.868-6.557-1.868c-3.695,0-6.942,1.529-9.685,4.571
	c-2.743,3.05-4.131,6.604-4.131,10.678c0,4.311,1.355,7.967,4.066,10.978c2.719,3.011,6.115,4.516,9.953,4.516
	c4.429,0,8.086-2.199,11.238-6.604v5.871h5.516v-29.158h-5.516v5.886H335.508z M333.245,168.869
	c-1.906,1.923-4.192,2.876-6.855,2.876c-2.688,0-4.973-0.969-6.864-2.892c-1.892-1.931-2.829-4.271-2.829-7.021
	c0-2.545,0.97-4.752,2.9-6.635c1.931-1.884,4.2-2.821,6.793-2.821c2.663,0,4.949,0.945,6.855,2.837
	c1.906,1.891,2.868,4.169,2.868,6.833C336.115,164.677,335.159,166.955,333.245,168.869z M350.481,164.779h16.549v-5.517h-16.549
	V164.779z M387.52,169.279l-9.614,20.718h6.414l19.67-42.555h-6.336l-7.305,15.816l-10.562-15.816h-6.966L387.52,169.279z
	 M435.591,153.321c-1.576-2.001-2.829-3.625-4.878-4.87c-2.05-1.245-4.265-1.875-6.55-1.875c-3.695,0-6.942,1.529-9.686,4.571
	c-2.742,3.05-4.129,6.604-4.129,10.678c0,4.311,1.354,7.967,4.074,10.978c2.719,3.011,6.106,4.516,9.938,4.516
	c4.421,0,8.069-2.199,11.222-6.604v5.871h6.306v-29.158h-6.306L435.591,153.321L435.591,153.321z M433.353,168.869
	c-1.907,1.923-4.2,2.876-6.864,2.876c-2.687,0-4.973-0.969-6.863-2.892c-1.892-1.923-2.828-4.271-2.828-7.021
	c0-2.545,0.969-4.752,2.898-6.635c1.932-1.884,4.192-2.821,6.785-2.821c2.664,0,4.949,0.945,6.864,2.837
	c1.907,1.891,2.868,4.169,2.868,6.833C436.221,164.677,435.26,166.955,433.353,168.869L433.353,168.869z M450.564,138.773h3.791
	c-0.048,2.364-1.222,4.862-3.53,7.171l2.821,2.616c1.434-1.316,2.624-2.876,3.467-4.642c0.844-1.765,1.316-3.467,1.316-5.067v-7.959
	h-7.881L450.564,138.773z M474.906,146.583c-2.751,0-5.044,0.804-6.863,2.419c-1.82,1.607-2.742,3.625-2.742,6.052
	c0,1.955,0.638,3.594,1.923,4.925c1.284,1.332,3.594,2.64,6.935,3.94c3.343,1.3,5.013,2.758,5.013,4.381
	c0,0.915-0.474,1.726-1.427,2.419c-0.954,0.694-2.063,1.041-3.334,1.041c-1.836,0-3.602-0.82-5.295-2.475l-4.839,2.333
	c2.632,3.814,6.013,5.721,10.126,5.721c2.703,0,5.061-0.914,7.063-2.734c2.001-1.82,3.002-3.956,3.002-6.399
	c0-2.096-0.693-3.877-2.088-5.359c-1.388-1.481-3.665-2.837-6.833-4.082c-3.168-1.245-4.744-2.522-4.744-3.838
	c0-1.836,1.245-2.75,3.744-2.75c1.056,0,1.978,0.197,2.75,0.583c0.771,0.386,1.693,0.961,2.75,1.71l4.09-3.602
	C480.739,148.001,477.656,146.583,474.906,146.583z"/>
</svg>
